<?xml version="1.0" encoding="UTF-8" standalone="no"?>
<!-- Created with Inkscape (http://www.inkscape.org/) -->

<svg
   version="1.1"
   id="svg2"
   width="1511.8134"
   height="226.772"
   viewBox="0 0 1511.8134 226.772"
   sodipodi:docname="wellplus-logo.ai"
   xmlns:inkscape="http://www.inkscape.org/namespaces/inkscape"
   xmlns:sodipodi="http://sodipodi.sourceforge.net/DTD/sodipodi-0.dtd"
   xmlns="http://www.w3.org/2000/svg"
   xmlns:svg="http://www.w3.org/2000/svg">
  <defs
     id="defs6">
    <clipPath
       clipPathUnits="userSpaceOnUse"
       id="clipPath20">
      <path
         d="M 0,170.079 H 1133.858 V 0 H 0 Z"
         id="path18" />
    </clipPath>
  </defs>
  <sodipodi:namedview
     id="namedview4"
     pagecolor="#ffffff"
     bordercolor="#000000"
     borderopacity="0.25"
     inkscape:showpageshadow="2"
     inkscape:pageopacity="0.0"
     inkscape:pagecheckerboard="0"
     inkscape:deskcolor="#d1d1d1" />
  <g
     id="g8"
     inkscape:groupmode="layer"
     inkscape:label="wellplus-logo"
     transform="matrix(1.3333333,0,0,-1.3333333,0,226.772)">
    <g
       id="g10"
       transform="translate(676.0624,116.3306)">
      <path
         d="M 0,0 -2.223,-8.32 0.001,0 0.263,0.945 1.599,5.937 0.263,0.945 Z"
         style="fill:#231916;fill-opacity:1;fill-rule:nonzero;stroke:none"
         id="path12" />
    </g>
    <g
       id="g14">
      <g
         id="g16"
         clip-path="url(#clipPath20)">
        <g
           id="g22"
           transform="translate(677.7772,133.5484)">
          <path
             d="M 0,0 C 0.515,-0.208 0.947,-0.51 1.278,-0.882 0.947,-0.51 0.515,-0.208 0,0"
             style="fill:#231916;fill-opacity:1;fill-rule:nonzero;stroke:none"
             id="path24" />
        </g>
        <g
           id="g26"
           transform="translate(679.0555,132.6666)">
          <path
             d="M 0,0 C 0.331,-0.372 0.561,-0.815 0.669,-1.308 0.561,-0.815 0.331,-0.372 0,0"
             style="fill:#231916;fill-opacity:1;fill-rule:nonzero;stroke:none"
             id="path28" />
        </g>
        <g
           id="g30"
           transform="translate(666.8505,99.7237)">
          <path
             d="M 0,0 C 0.33,0 0.66,0.029 0.985,0.084 0.66,0.029 0.33,0 0,0"
             style="fill:#231916;fill-opacity:1;fill-rule:nonzero;stroke:none"
             id="path32" />
        </g>
        <g
           id="g34"
           transform="translate(679.6649,129.7559)">
          <path
             d="m 0,0 -2.004,-7.488 -1.336,-4.992 -0.262,-0.945 -2.223,-8.32 -1.112,-4.16 c -0.076,-0.284 -0.183,-0.562 -0.318,-0.83 -0.54,-1.073 -1.523,-1.996 -2.699,-2.591 -0.588,-0.297 -1.223,-0.512 -1.875,-0.622 -0.325,-0.055 -0.655,-0.084 -0.985,-0.084 h -17.114 l 1.103,4.127 3.348,12.48 0.244,0.945 3.346,12.48 1.11,4.115 h 17.12 C -2.999,4.115 -2.402,4 -1.888,3.792 -1.373,3.584 -0.94,3.283 -0.609,2.911 -0.278,2.539 -0.049,2.095 0.06,1.603 0.167,1.11 0.154,0.569 0,0 M 20.017,24.04 H 8.598 6.451 -15.436 -56.125 l -6.286,-23.46 -3.499,-13.06 -0.263,-0.945 -3.494,-13.053 -13.729,-51.249 h 40.683 l 7.444,27.777 h 21.893 2.147 11.425 c 14.973,0 29.916,10.505 33.398,23.472 l 3.499,13.053 0.251,0.945 3.492,13.06 c 3.476,12.955 -5.853,23.46 -20.819,23.46"
             style="fill:#231916;fill-opacity:1;fill-rule:nonzero;stroke:none"
             id="path36" />
        </g>
        <g
           id="g38"
           transform="translate(676.0077,133.8712)">
          <path
             d="M 0,0 V 0 C 0.658,0 1.255,-0.115 1.77,-0.323 1.255,-0.115 0.658,0 0,0"
             style="fill:#231916;fill-opacity:1;fill-rule:nonzero;stroke:none"
             id="path40" />
        </g>
        <g
           id="g42"
           transform="translate(669.7108,100.4303)">
          <path
             d="M 0,0 C -0.588,-0.297 -1.223,-0.512 -1.875,-0.623 -1.223,-0.512 -0.588,-0.297 0,0"
             style="fill:#231916;fill-opacity:1;fill-rule:nonzero;stroke:none"
             id="path44" />
        </g>
        <g
           id="g46"
           transform="translate(672.41,103.0211)">
          <path
             d="M 0,0 C 0.135,0.268 0.242,0.546 0.317,0.83 L 1.43,4.99 0.317,0.83 C 0.242,0.546 0.135,0.268 0,0"
             style="fill:#231916;fill-opacity:1;fill-rule:nonzero;stroke:none"
             id="path48" />
        </g>
        <g
           id="g50"
           transform="translate(658.8876,133.8712)">
          <path
             d="m 0,0 -1.109,-4.115 -3.347,-12.48 3.348,12.48 z"
             style="fill:#231916;fill-opacity:1;fill-rule:nonzero;stroke:none"
             id="path52" />
        </g>
        <g
           id="g54"
           transform="translate(679.6649,129.7559)">
          <path
             d="M 0,0 -2.004,-7.488 0,0 C 0.154,0.569 0.167,1.11 0.06,1.603 0.167,1.11 0.154,0.569 0,0"
             style="fill:#231916;fill-opacity:1;fill-rule:nonzero;stroke:none"
             id="path56" />
        </g>
        <g
           id="g58"
           transform="translate(570.5468,153.7955)">
          <path
             d="m 0,0 h -40.677 l -27.277,-101.767 h 17.692 22.997 l 41.714,0.025 5.177,19.253 h -41.732 z"
             style="fill:#231916;fill-opacity:1;fill-rule:nonzero;stroke:none"
             id="path60" />
        </g>
        <g
           id="g62"
           transform="translate(778.7196,153.7955)">
          <path
             d="m 0,0 h -40.684 l -27.27,-101.767 h 17.686 22.997 l 41.713,0.025 5.183,19.253 h -41.732 z"
             style="fill:#231916;fill-opacity:1;fill-rule:nonzero;stroke:none"
             id="path64" />
        </g>
        <g
           id="g66"
           transform="translate(933.868,150.211)">
          <path
             d="m 0,0 0.964,3.584 h -40.69 L -40.695,0 l -0.243,-0.939 -19.614,-73.198 -1.103,-4.121 h -17.132 c -2.622,0 -4.268,1.847 -3.659,4.121 l 19.62,73.198 0.25,0.939 0.963,3.584 h -40.69 L -103.26,0 l -0.256,-0.939 -19.771,-73.777 c -3.47,-12.961 5.852,-23.466 20.826,-23.466 h 11.432 2.139 21.893 40.684 l 6.286,23.466 19.765,73.777 z"
             style="fill:#231916;fill-opacity:1;fill-rule:nonzero;stroke:none"
             id="path68" />
        </g>
        <g
           id="g70"
           transform="translate(979.8192,129.7559)">
          <path
             d="M 0,0 C 0.616,2.274 3.231,4.115 5.871,4.115 H 18.235 62.729 L 68.357,24.04 H 25.259 13.242 -7.139 C -22.1,24.04 -37.056,13.535 -40.524,0.58 l -3.664,-13.675 c -3.512,-13.09 5.907,-23.711 21.027,-23.711 h 6.029 7.279 16.53 c 2.95,0 4.797,-2.073 4.108,-4.639 L 7.512,-53.682 C 6.896,-55.956 4.268,-57.803 1.64,-57.803 h -7.681 -4.683 -45.103 c -3.128,-11.492 -5.42,-19.924 -5.42,-19.924 h 38.268 8.962 15.079 2.152 11.419 c 14.973,0 29.929,10.505 33.41,23.466 l 3.657,13.676 c 3.506,13.095 -5.907,23.703 -21.021,23.703 H 24.649 17.363 0.83 c -2.958,0 -4.792,2.073 -4.11,4.634 z"
             style="fill:#231916;fill-opacity:1;fill-rule:nonzero;stroke:none"
             id="path72" />
        </g>
        <g
           id="g74"
           transform="translate(477.0048,153.7955)">
          <path
             d="M 0,0 H -40.684 L -67.96,-101.767 h 17.691 22.998 l 41.714,0.025 5.176,19.253 h -41.726 z"
             style="fill:#231916;fill-opacity:1;fill-rule:nonzero;stroke:none"
             id="path76" />
        </g>
        <g
           id="g78"
           transform="translate(352.9491,95.0479)">
          <path
             d="M 0,0 56.363,0.018 61.424,19.247 5.164,19.29 10.583,39.506 66.795,39.458 71.99,58.802 15.741,58.778 H -7.262 -24.931 l -23.8,-88.756 c -1.921,-7.189 3.254,-13.011 11.552,-13.011 h 2.647 23.009 l 55.894,-0.03 5.171,19.309 H -6.359 Z"
             style="fill:#231916;fill-opacity:1;fill-rule:nonzero;stroke:none"
             id="path80" />
        </g>
        <g
           id="g82"
           transform="translate(276.0751,153.7955)">
          <path
             d="M 0,0 -14.943,-55.767 -38.257,-9.163 -86.47,-54.565 -94.457,-16.407 -132.756,0 h -65.138 l -7.749,-28.935 h 85.354 l -19.508,-72.832 h 35.543 c 3.212,0 6.598,1.378 9.017,3.677 l 45.238,44.805 22.723,-48.482 h 0.005 40.684 L 40.677,0 Z"
             style="fill:#231916;fill-opacity:1;fill-rule:nonzero;stroke:none"
             id="path84" />
        </g>
        <g
           id="g86"
           transform="translate(58.763,81.9097)">
          <path
             d="m 0,0 h 68.1 l 7.755,28.934 h -68.1 z"
             style="fill:#e60013;fill-opacity:1;fill-rule:nonzero;stroke:none"
             id="path88" />
        </g>
        <g
           id="g90"
           transform="translate(189.6053,99.2301)">
          <path
             d="M 0,0 0.009,0.035 Z"
             style="fill:#851c20;fill-opacity:1;fill-rule:nonzero;stroke:none"
             id="path92" />
        </g>
        <g
           id="g94"
           transform="translate(189.6141,99.2647)">
          <path
             d="M 0,0 -7.996,38.124 -0.009,-0.035 Z"
             style="fill:#851c20;fill-opacity:1;fill-rule:nonzero;stroke:none"
             id="path96" />
        </g>
        <g
           id="g98"
           transform="translate(143.3192,153.7955)">
          <path
             d="m 0,0 38.299,-16.407 7.996,-38.124 10e-4,-0.002 L 60.912,0 Z"
             style="fill:#e60013;fill-opacity:1;fill-rule:nonzero;stroke:none"
             id="path100" />
        </g>
        <g
           id="g102"
           transform="translate(181.618,137.3887)">
          <path
             d="M 0,0 22.613,16.407 7.987,-38.159 Z"
             style="fill:#7d0000;fill-opacity:1;fill-rule:nonzero;stroke:none"
             id="path104" />
        </g>
        <g
           id="g106"
           transform="translate(102.3182,110.8438)">
          <path
             d="m 0,0 20.309,-8.7 4.24,-20.217 v 0 L 32.3,0 Z"
             style="fill:#727272;fill-opacity:1;fill-rule:nonzero;stroke:none"
             id="path108" />
        </g>
        <g
           id="g110"
           transform="translate(122.6273,102.1436)">
          <path
             d="M 0,0 11.991,8.7 4.235,-20.234 Z"
             style="fill:#231916;fill-opacity:1;fill-rule:nonzero;stroke:none"
             id="path112" />
        </g>
        <g
           id="g114"
           transform="translate(129.6102,27.4395)">
          <path
             d="M 0,0 -4.094,-15.322 884.792,0 Z"
             style="fill:#e60013;fill-opacity:1;fill-rule:nonzero;stroke:none"
             id="path116" />
        </g>
      </g>
    </g>
  </g>
</svg>
